<?xml version="1.0" encoding="UTF-8" standalone="no"?>
<!-- Created with Inkscape (http://www.inkscape.org/) -->

<svg
   width="187.97527mm"
   height="109.43782mm"
   viewBox="0 0 187.97527 109.43782"
   version="1.1"
   id="svg1"
   sodipodi:docname="b2bcreditos_logo.svg"
   inkscape:version="1.4.4 (dcaf3e7d9e, 2026-05-05)"
   xmlns:inkscape="http://www.inkscape.org/namespaces/inkscape"
   xmlns:sodipodi="http://sodipodi.sourceforge.net/DTD/sodipodi-0.dtd"
   xmlns="http://www.w3.org/2000/svg"
   xmlns:svg="http://www.w3.org/2000/svg">
  <sodipodi:namedview
     id="namedview1"
     pagecolor="#ffffff"
     bordercolor="#000000"
     borderopacity="0.25"
     inkscape:showpageshadow="2"
     inkscape:pageopacity="0.0"
     inkscape:pagecheckerboard="0"
     inkscape:deskcolor="#d1d1d1"
     inkscape:document-units="mm"
     inkscape:zoom="1.4070775"
     inkscape:cx="289.60735"
     inkscape:cy="240.21419"
     inkscape:window-width="2560"
     inkscape:window-height="1373"
     inkscape:window-x="1920"
     inkscape:window-y="0"
     inkscape:window-maximized="1"
     inkscape:current-layer="svg1" />
  <defs
     id="defs1">
    <clipPath
       clipPathUnits="userSpaceOnUse"
       id="clipPath6">
      <rect
         style="fill:#00ffff;fill-opacity:1;stroke-width:1.66382"
         id="rect7"
         width="179.93124"
         height="398.30243"
         x="199.56013"
         y="300.97595" />
    </clipPath>
    <clipPath
       clipPathUnits="userSpaceOnUse"
       id="clipPath5">
      <rect
         style="fill:#00ffff;fill-opacity:1;stroke-width:1.66382"
         id="rect6"
         width="179.93124"
         height="398.30243"
         x="199.56013"
         y="300.97595" />
    </clipPath>
    <clipPath
       clipPathUnits="userSpaceOnUse"
       id="clipPath7">
      <rect
         style="fill:#ff6600;fill-opacity:1;stroke-width:3.24176"
         id="rect8"
         width="527.52576"
         height="394.21307"
         x="380.30927"
         y="-98.962181" />
    </clipPath>
  </defs>
  <g
     id="layer1"
     transform="translate(-10.824263,-80.245919)">
    <g
       id="g8"
       style="display:inline"
       transform="matrix(0.26458333,0,0,0.26458333,-42.082697,5.5897716)">
      <path
         d="m 476.15,627.17 c -10,2.57 -13.98,3.05 -28.15,3.41 -21.41,0.55 -27.54,-1.06 -33.3,-8.78 -0.43,-0.57 -0.81,-1.09 -1.14,-1.63 -2.94,-4.89 -1.43,-12.45 13.93,-89.4 l 0.16,-0.77 c 4.2,-21.07 4.84,-27.94 2.97,-32.09 -0.58,-1.29 0.68,-2 6.58,-3.75 12.86,-3.81 18.8,-2.54 18.8,4.03 0,1.68 -4.03,23.36 -8.95,48.18 l -0.86,4.32 c -9.76,49.18 -10.45,52.65 -9.56,55.65 0.09,0.31 0.2,0.62 0.32,0.98 2.32,6.99 12.29,10.28 28.53,9.41 12.45,-0.66 21.23,-3.74 30.81,-10.78 15.47,-11.38 20.88,-29.67 13.03,-44.11 -3.44,-6.34 -10.81,-11.46 -21.42,-14.87 -8.2,-2.64 -10.71,-2.77 -19.9,-1.06 -7.76,1.45 -13.01,0.76 -12.97,-1.71 0.06,-2.98 5.37,-12.54 8.05,-14.47 3.34,-2.42 8.94,-3.68 16.46,-3.71 6.02,-0.02 6.07,-0.04 13.06,-6.43 19.14,-17.47 19.01,-37.58 -0.29,-43.19 -8.6,-2.5 -28.87,-1.5 -40.6,1.99 -17.86,5.33 -30.11,13.01 -46.88,29.38 -12.83,12.53 -12.95,12.56 -14.39,3.56 -1.38,-8.62 4.02,-18.59 14.29,-26.36 7.96,-6.03 23.19,-13.88 33.67,-17.37 18.74,-6.23 45.41,-9.17 60.3,-6.65 14.66,2.48 27.75,11.59 30.31,21.1 3.6,13.36 -7.06,31.5 -26.03,44.28 l -5.08,3.42 6.8,2.7 c 20.52,8.15 30.95,18.66 32.81,33.05 0.89,6.86 -1.66,18.27 -5.67,25.3 -9.07,15.95 -30.43,29.9 -55.69,36.37 z m 308.35,2.35 c -12.92,2.12 -32.56,1.91 -39.28,-0.41 -8.85,-3.05 -13.22,-8.54 -13.22,-16.56 0,-3.86 5.73,-34.21 17.65,-93.55 2.36,-11.77 2.52,-15.53 0.87,-20.63 -0.61,-1.89 -0.04,-2.34 5.14,-3.98 3.21,-1.02 8.52,-1.86 11.79,-1.87 5.41,-0.02 6.08,0.22 7.46,2.65 1.41,2.5 0.94,5.58 -7.17,46.5 l -0.74,3.72 c -10.75,54.26 -11.61,58.61 -10.2,62.03 0.15,0.37 0.33,0.73 0.53,1.15 2.53,5.29 8.62,7.65 21.17,8.2 12.25,0.53 20.88,-1.29 30.71,-6.45 11.99,-6.3 19.52,-15.14 22.36,-26.25 3.82,-14.98 -2.19,-27.69 -16.13,-34.12 -9.73,-4.49 -17.91,-6.28 -22.2,-4.86 -4.04,1.33 -16.67,1.81 -17.82,0.67 -1.05,-1.05 1.14,-7.82 3.83,-11.8 3.57,-5.3 7.66,-7.11 17.41,-7.72 8.55,-0.53 8.63,-0.56 14.57,-5.51 11.28,-9.39 17.54,-22.87 14.83,-31.93 -1.8,-6 -6.42,-10.18 -13.57,-12.27 -7.93,-2.32 -28.52,-1.63 -39.35,1.32 -17.26,4.7 -34.24,15.24 -49.78,30.9 -5.6,5.64 -10.43,10.25 -10.73,10.25 -1.26,0 -2.79,-8.8 -2.24,-12.85 1.38,-10.01 8.87,-18.78 23.41,-27.38 30.9,-18.28 77.09,-24.39 99.41,-13.15 11.09,5.59 15.79,12.42 15.79,22.95 0,12.26 -7.48,23.7 -23.13,35.35 -4.37,3.25 -7.59,6.12 -7.16,6.37 0.43,0.24 2.59,1.01 4.79,1.7 12.16,3.81 25.17,13.31 29.75,21.74 6.03,11.07 5.77,21.7 -0.84,35.13 -9.78,19.85 -35.72,35.38 -67.91,40.66 z m -103.08,-9.77 c 0.7,4.95 0.19,5.09 -7.96,2.19 -15.01,-5.33 -52.98,-5.51 -85.2,-0.4 -19.14,3.03 -21.83,1.87 -21.66,-9.34 0.08,-5.8 0.38,-6.77 2.5,-8.14 20.34,-13.19 50.18,-41.08 64.79,-60.56 8.9,-11.88 18.13,-29.45 20.15,-38.37 1.6,-7.06 0.72,-16.16 -1.98,-20.53 -6.01,-9.73 -24.71,-11.09 -40.25,-2.93 -6.96,3.66 -17.21,12.95 -21.6,19.6 -3.23,4.87 -4.4,3.74 -4.57,-4.43 -0.11,-5.26 0.33,-7.14 2.61,-11.01 3.64,-6.2 11.07,-12.55 20.66,-17.66 21.46,-11.44 47.11,-10.71 60.38,1.7 7.25,6.78 9.08,10.97 9,20.63 -0.1,13.85 -6.91,28.72 -22.2,48.5 -8.77,11.35 -31.39,34.4 -48.4,49.34 -7.59,6.66 -13.32,12.28 -12.73,12.48 0.6,0.2 4.79,-0.11 9.31,-0.7 27.54,-3.53 58.6,-3.95 65.84,-0.87 6.66,2.83 9.57,8.08 11.31,20.5 z m -404.11,72.18 c -0.49,1.89 -1.33,3.53 -1.86,3.66 -1.23,0.29 -16.48,-3.8 -27.95,-7.49 -28.32,-9.12 -39.23,-20.26 -44.68,-45.59 -2.12,-9.9 -3.85,-50.9 -2.2,-52.5 0.81,-0.8 12.03,5.16 34.38,18.25 13.59,7.96 30.13,22.72 34.96,31.19 5.75,10.1 7.28,16.67 7.79,33.55 0.26,8.53 0.06,17.04 -0.44,18.93 z m 30.69,0.62 c -5.23,1.43 -10.29,2.85 -11.25,3.14 -1.31,0.41 -2.16,-0.42 -3.38,-3.32 -1.35,-3.23 -1.53,-6.36 -1.05,-18.87 0.6,-15.88 2.05,-22.47 7.07,-32.19 2.66,-5.16 14.86,-18.59 20.61,-22.69 8.96,-6.4 17.04,-11.63 23,-14.89 14.78,-8.08 20.87,-11.52 23.09,-13.08 1.3,-0.91 2.7,-1.65 3.13,-1.65 0.43,0 0.78,8.02 0.78,17.83 0,42.11 -7.03,60.9 -27.32,73.02 -6.05,3.62 -19.46,8.52 -34.68,12.7 z m 6.5,-83.44 c -5.5,1.6 -12.53,3.2 -15.62,3.53 l -5.61,0.62 -0.71,-15.88 c -1.26,-28.41 0.83,-34.46 18.11,-52.39 11.52,-11.95 19.79,-18.23 34.83,-26.48 3.85,-2.11 8.9,-5.36 11.22,-7.22 4.18,-3.35 4.22,-3.36 4.69,-1.08 0.26,1.26 0.73,11.07 1.04,21.79 0.82,28.41 -1.61,41.46 -10.03,53.68 -7.49,10.88 -18.7,17.81 -37.92,23.43 z m -37.15,-3.76 -0.64,7.65 -3.11,-0.14 c -7.72,-0.34 -26.36,-5.78 -35.61,-10.39 -16.43,-8.21 -26.05,-21.32 -28.94,-39.47 -1.12,-7.06 -1.27,-49.01 -0.18,-52.88 l 0.66,-2.38 3.01,2.53 c 1.66,1.39 5.92,4.22 9.48,6.28 17.39,10.09 28.56,18.43 37.02,27.65 11.53,12.54 13.49,15.3 16.43,23.13 2.18,5.8 2.53,8.33 2.53,18.54 0,6.51 -0.29,15.27 -0.65,19.48 z m 14.22,-210.24 c -5.49,2.49 -7.99,2.29 -15.25,-1.27 -8.06,-3.94 -17.46,-12.5 -20.38,-18.56 -5.33,-11.07 -4.15,-24.78 3.48,-40.64 6.04,-12.55 22.22,-33.64 25.81,-33.64 1.53,0 8.12,7.24 15.94,17.51 11.01,14.46 17.67,32.74 16.32,44.83 -0.79,7.09 -3.14,13.05 -7.17,18.17 -3.12,3.98 -12.44,10.73 -18.75,13.6 z m 19.38,129.23 c -4.69,1.36 -10.61,2.79 -13.15,3.17 l -4.61,0.69 -0.35,-6.29 c -0.19,-3.46 -0.06,-11.94 0.29,-18.85 0.54,-10.83 1.04,-13.55 3.62,-19.77 5.02,-12.07 14.14,-21.53 32.34,-33.54 13.88,-9.17 32.9,-19.16 34.12,-17.94 0.49,0.49 0.37,3 -0.29,5.78 -0.64,2.7 -1.46,14.81 -1.83,26.91 l -0.68,22 -3.7,7.66 c -6.72,13.9 -20.13,22.76 -45.76,30.18 z m -33.23,-13.09 0.57,16.75 -2.89,-0.06 c -4.25,-0.09 -24.72,-6.06 -33.5,-9.78 -9.27,-3.93 -18.5,-10.29 -23.36,-16.11 -7.47,-8.95 -8.46,-12.99 -9.64,-39.51 -0.53,-12.12 -1.23,-23.95 -1.54,-26.29 -0.49,-3.68 -0.32,-4.25 1.28,-4.25 6.49,0.01 41.8,22.69 52.56,33.76 12.79,13.15 15.68,21.13 16.52,45.49 z m 30.9,-62.36 c -3.92,1.06 -8.99,2.14 -11.27,2.41 -3.95,0.46 -4.17,0.34 -4.75,-2.53 -2.03,-10.18 0.37,-29.94 4.78,-39.27 4.11,-8.7 14.87,-20.47 24.92,-27.25 8.36,-5.65 32.05,-19.25 33.53,-19.25 3.11,0 2.56,32.38 -0.77,45.32 -5.51,21.38 -18.99,33.16 -46.44,40.57 z m -30.84,-11.2 c -0.23,11.36 -0.54,13.82 -1.78,13.98 -4.91,0.63 -24.98,-5.63 -36.37,-11.36 -16.65,-8.37 -24.53,-22.78 -27.14,-49.65 -0.95,-9.75 0.38,-27.66 2.05,-27.66 0.72,0 5.28,2.32 10.13,5.15 4.86,2.84 12.4,7.22 16.76,9.75 9.5,5.51 23.11,18.12 28.62,26.52 6.39,9.73 8.06,16.94 7.73,33.27 z m 486.73,256.23 c -6.71,3.19 -17.51,1.9 -17.51,-2.08 0,-1.76 0.4,-1.9 3.25,-1.18 9.64,2.41 15.4,-0.63 16.49,-8.73 l 0.58,-4.38 -3.23,2.72 c -5.87,4.94 -13.84,2.99 -17.61,-4.31 -1.88,-3.64 -1.9,-11.02 -0.04,-15.47 2.83,-6.78 12.48,-9.7 17.93,-5.42 l 2.63,2.08 v -2.08 c 0,-1.4 0.64,-2.07 2,-2.07 1.92,0 2,0.67 2,16.25 0,18.23 -1.01,22.07 -6.49,24.67 z m 94.41,-13.51 c -3.28,2.77 -8.54,3.36 -12.54,1.43 -5.47,-2.65 -8.07,-13.87 -4.94,-21.35 2.83,-6.78 12.48,-9.7 17.93,-5.42 l 2.63,2.08 v -8.58 c 0,-7.9 0.16,-8.57 2,-8.57 1.94,0 2,0.67 2,21 0,20.33 -0.06,21 -2,21 -1.36,0 -2,-0.67 -2,-2.09 0,-2.01 -0.12,-1.99 -3.08,0.5 z m -354,0 c -7.78,6.55 -18.92,-0.43 -18.92,-11.86 0,-11.67 11.49,-19.67 19.37,-13.48 l 2.63,2.08 v -8.58 c 0,-7.9 0.16,-8.57 2,-8.57 0.08,0 0.15,0 0.23,0 0.28,-0.01 0.52,-0.01 0.73,0.07 1.15,0.48 1.15,3.75 1.15,25.36 v 3.07 c 0,6.33 -0.03,11.95 -0.06,12.5 -0.03,0.55 -0.95,1 -2.05,1 -1.36,0 -2,-0.67 -2,-2.09 0,-2.01 -0.12,-1.99 -3.08,0.5 z m 389.84,0.6 c -3.75,2.28 -8.9,2.5 -13.36,0.56 -9.26,-4.03 -10.04,-21.16 -1.21,-26.54 4.64,-2.83 12.61,-2.76 16.3,0.14 8.07,6.35 7.13,20.43 -1.73,25.84 z m -232.83,0.24 c -9.92,5.06 -20.45,-1.52 -20.29,-12.68 0.14,-9.52 5.63,-15.56 14.16,-15.57 9.01,0 13.63,5.21 13.56,15.3 -0.05,6.71 -2.06,10.21 -7.43,12.95 z m -89.42,0.31 c -4.56,1.91 -8.27,1.81 -12.44,-0.31 -5.44,-2.77 -7.54,-6.43 -7.54,-13.12 0,-9.53 5.49,-15.12 14.84,-15.13 4.32,0 5.3,0.43 8.75,3.88 3.7,3.7 3.88,4.19 3.88,10.25 -0.01,7.69 -2.4,12.3 -7.49,14.43 z m 254.57,-1.13 c -2.27,2.05 -8.67,2.93 -11.76,1.61 -3.95,-1.68 -5.61,-7.77 -3.29,-12.1 1.33,-2.49 6.11,-4.94 9.67,-4.95 6.99,-0.04 9.38,-2.8 5.47,-6.34 -2.28,-2.06 -6.37,-2.11 -10.22,-0.12 -2.87,1.48 -2.95,1.45 -2.95,-0.84 0,-2.94 3.48,-4.69 9.32,-4.69 8.38,0 10.67,4.23 10.67,19.75 0.01,9.2 0,9.25 -2.49,9.25 -1.66,0 -2.5,-0.56 -2.5,-1.65 0,-1.52 -0.17,-1.51 -1.92,0.08 z m -351.23,1.47 c -6.96,2.43 -14.66,0.3 -17.29,-4.77 -2.25,-4.36 -2.04,-13.83 0.4,-17.83 2.4,-3.93 6.75,-6.3 11.59,-6.3 2.82,0 4.43,0.78 7.05,3.4 2.88,2.88 3.4,4.1 3.4,8 v 4.6 h -20.22 l 0.65,2.75 c 1.47,6.25 8.38,8.95 14.62,5.72 2.88,-1.48 2.95,-1.46 2.95,0.91 0,1.82 -0.78,2.7 -3.15,3.52 z m 156.4,0.05 c -7.94,2.2 -17.18,0.23 -21.46,-4.6 -4.37,-4.92 -6.23,-16.4 -3.73,-23.03 1.26,-3.36 6.44,-8.97 9.94,-10.79 4.02,-2.08 10.45,-2.76 14.89,-1.56 3.46,0.93 4.11,1.51 4.11,3.68 0,2.08 -0.33,2.41 -1.75,1.76 -0.96,-0.44 -4.49,-0.97 -7.83,-1.18 -5.44,-0.35 -6.42,-0.1 -9.29,2.31 -4.55,3.84 -6.13,7.5 -6.13,14.26 0,7 2.6,11.69 8.02,14.5 3.41,1.77 7.07,1.8 14.23,0.11 2.32,-0.54 2.75,-0.32 2.75,1.43 0,1.54 -0.96,2.33 -3.75,3.11 z m -204,0 c -13.55,3.76 -24.31,-3.24 -25.93,-16.87 -1.71,-14.48 11.05,-26.31 25.18,-23.34 3.41,0.71 4.05,1.26 4.33,3.69 0.28,2.44 0.07,2.73 -1.5,2.02 -1.01,-0.46 -4.31,-0.99 -7.33,-1.18 -4.25,-0.27 -6.25,0.12 -8.81,1.71 -6.16,3.84 -8.95,14.56 -5.77,22.17 1.91,4.58 4.25,6.5 9.69,7.96 3.83,1.02 5.37,0.97 9.24,-0.31 4.64,-1.52 4.65,-1.52 4.65,0.79 0,1.82 -0.8,2.54 -3.75,3.36 z m 222.5,-4.03 c 3.11,1.81 7.98,1.22 10.94,-1.33 2.5,-2.15 2.81,-3.08 2.81,-8.42 0,-4.98 -0.41,-6.45 -2.42,-8.59 -4.21,-4.48 -11.65,-3.25 -14.57,2.4 -2.76,5.34 -1.13,13.4 3.24,15.94 z m -89.39,-0.38 c 2.43,1.7 6.95,1.9 9.7,0.43 4.99,-2.67 6.37,-11.54 2.66,-17.07 -3.01,-4.48 -9.03,-5.26 -13.17,-1.7 -4.88,4.2 -4.42,14.67 0.81,18.34 z m 320.56,-1.46 c 3.13,3.12 6.7,3.73 10.4,1.76 3.64,-1.94 4.61,-4.07 4.65,-10.14 0.04,-7.44 -2.69,-10.7 -8.97,-10.7 -6.21,0 -9,3.27 -9,10.53 0,4.88 0.39,6.01 2.92,8.55 z M 786,671.67 V 682 h -5 v -14.5 c 0,-13.91 0.08,-14.5 2.03,-14.5 1.18,0 2.42,0.95 2.94,2.25 0.5,1.24 0.93,1.76 0.97,1.16 0.14,-2.5 8.45,-4.35 12.52,-2.79 3.08,1.18 4.57,6.16 5.22,17.38 l 0.63,11 H 800 l -0.01,-9.75 c -0.02,-11.74 -1.14,-14.62 -5.87,-15.07 -2.39,-0.23 -4.02,0.31 -5.73,1.92 -2.22,2.09 -2.39,2.98 -2.39,12.57 z m -33.55,4.88 c 3.16,3.15 7.58,3.19 11.17,0.1 2.28,-1.96 2.8,-3.34 3.17,-8.43 0.4,-5.5 0.19,-6.33 -2.13,-8.65 -2.53,-2.53 -6.57,-3.31 -10.12,-1.95 -2.59,1 -4.54,5.88 -4.54,11.38 0,4.07 0.49,5.58 2.45,7.55 z m 95,0 c 3.16,3.15 7.58,3.19 11.17,0.1 2.28,-1.96 2.8,-3.34 3.17,-8.43 0.4,-5.5 0.19,-6.33 -2.13,-8.65 -2.53,-2.53 -6.57,-3.31 -10.12,-1.95 -2.59,1 -4.54,5.88 -4.54,11.38 0,4.07 0.49,5.58 2.45,7.55 z M 681,671.95 V 682 h -5.05 l 0.27,-14.25 c 0.27,-13.92 0.33,-14.26 2.53,-14.57 1.73,-0.25 2.25,0.17 2.25,1.82 v 2.15 l 2.63,-2.08 c 4.02,-3.16 9.8,-2.79 13.45,0.85 2.89,2.9 2.92,3.04 2.92,14.5 0,10.91 -0.12,11.58 -2,11.58 -1.86,0 -2,-0.67 -2,-9.57 0,-9.07 -0.91,-13 -3.4,-14.66 -2.3,-1.54 -6.74,-0.72 -9.15,1.68 -2.28,2.28 -2.45,3.17 -2.45,12.5 z m -187.08,4.13 c 1.77,1.76 3.98,2.92 5.58,2.92 1.6,0 3.81,-1.16 5.58,-2.92 2.53,-2.54 2.92,-3.67 2.92,-8.55 0,-6.95 -2.84,-10.53 -8.37,-10.53 -8.14,0 -11.98,12.81 -5.71,19.08 z m 227.8,4.95 c -3.46,2.11 -10.09,2.57 -12.97,0.89 -0.96,-0.56 -1.75,-1.95 -1.75,-3.08 0,-1.56 0.42,-1.88 1.75,-1.34 4.01,1.65 9.82,1.73 11.12,0.15 2.27,-2.72 0.83,-5.05 -4.81,-7.8 -2.99,-1.46 -6.03,-3.46 -6.75,-4.44 -3.92,-5.37 1.29,-12.41 9.18,-12.41 5.64,0 7.51,0.78 7.51,3.12 0,1.7 -0.54,1.83 -5.28,1.28 -4.13,-0.49 -5.57,-0.28 -6.59,0.94 -2.31,2.79 -0.84,5.06 5.14,7.91 8.76,4.18 10.27,10.62 3.45,14.78 z m -172.9,-0.28 c -0.56,2.94 -6.31,2.85 -9.3,-0.14 -2.36,-2.35 -2.52,-3.17 -2.52,-12.5 0,-9.58 -0.09,-9.98 -2.25,-10.29 -1.48,-0.21 -2.25,-1.01 -2.25,-2.32 0,-1.31 0.77,-2.11 2.25,-2.32 1.74,-0.25 2.25,-0.97 2.25,-3.21 0,-1.81 0.7,-3.28 1.87,-3.9 2.42,-1.3 3.13,-0.49 3.13,3.6 0,3.15 0.19,3.33 3.57,3.33 3.13,0 3.53,0.28 3.25,2.25 -0.25,1.72 -1.08,2.32 -3.57,2.56 l -3.25,0.32 v 9.23 c 0,9.88 0.72,11.64 4.77,11.64 1.72,0 2.29,0.48 2.05,1.75 z M 444,671.95 V 682 h -5.05 l 0.27,-14.24 c 0.25,-12.85 0.46,-14.27 2.1,-14.58 1.16,-0.23 2.01,0.37 2.34,1.64 0.52,1.98 0.54,1.98 2.49,0.03 2.41,-2.41 7.18,-2.15 7.66,0.4 0.25,1.31 -0.33,1.75 -2.28,1.75 -1.45,0 -3.72,1.1 -5.08,2.45 -2.28,2.28 -2.45,3.17 -2.45,12.5 z m 82.78,-4.2 0.27,14.25 h -5.1 l 0.27,-14.25 c 0.27,-13.49 0.39,-14.25 2.28,-14.25 1.89,0 2.01,0.76 2.28,14.25 z m 211,0 0.27,14.25 h -5.1 l 0.27,-14.25 c 0.27,-13.49 0.39,-14.25 2.28,-14.25 1.89,0 2.01,0.76 2.28,14.25 z m 79.42,10.05 c 3.72,3.72 11.8,-0.98 11.8,-6.87 v -3.16 l -4.75,0.72 c -2.61,0.39 -5.54,1.13 -6.5,1.64 -2.02,1.08 -2.36,5.86 -0.55,7.67 z M 462.71,661.76 460.82,665 h 8.09 c 4.46,0 8.09,-0.43 8.09,-0.95 0,-0.53 -0.53,-2.11 -1.17,-3.53 -2.33,-5.12 -9.82,-4.42 -13.12,1.24 z m 9.22,-16.49 c -2.62,3.17 -5.93,4.97 -5.93,3.21 0,-1.85 5.58,-8.48 7.13,-8.48 2.58,0 2.36,0.95 -1.2,5.27 z m 266.42,-0.74 c -0.74,1.92 -4.25,1.9 -4.99,-0.03 -0.7,-1.82 0.22,-4.5 1.54,-4.5 1.72,0 4.03,3.02 3.45,4.53 z m -211.51,-0.92 c -0.37,1.92 -2.9,3 -4.14,1.76 -1.18,-1.18 -0.78,-4.13 0.64,-4.67 2.02,-0.77 3.9,0.8 3.5,2.91 z"
         fill="rgb(169,134,69)"
         id="path1"
         style="display:inline;fill:#e3ae1c;fill-opacity:1"
         clip-path="url(#clipPath6)" />
      <path
         d="m 476.15,627.17 c -10,2.57 -13.98,3.05 -28.15,3.41 -21.41,0.55 -27.54,-1.06 -33.3,-8.78 -0.43,-0.57 -0.81,-1.09 -1.14,-1.63 -2.94,-4.89 -1.43,-12.45 13.93,-89.4 l 0.16,-0.77 c 4.2,-21.07 4.84,-27.94 2.97,-32.09 -0.58,-1.29 0.68,-2 6.58,-3.75 12.86,-3.81 18.8,-2.54 18.8,4.03 0,1.68 -4.03,23.36 -8.95,48.18 l -0.86,4.32 c -9.76,49.18 -10.45,52.65 -9.56,55.65 0.09,0.31 0.2,0.62 0.32,0.98 2.32,6.99 12.29,10.28 28.53,9.41 12.45,-0.66 21.23,-3.74 30.81,-10.78 15.47,-11.38 20.88,-29.67 13.03,-44.11 -3.44,-6.34 -10.81,-11.46 -21.42,-14.87 -8.2,-2.64 -10.71,-2.77 -19.9,-1.06 -7.76,1.45 -13.01,0.76 -12.97,-1.71 0.06,-2.98 5.37,-12.54 8.05,-14.47 3.34,-2.42 8.94,-3.68 16.46,-3.71 6.02,-0.02 6.07,-0.04 13.06,-6.43 19.14,-17.47 19.01,-37.58 -0.29,-43.19 -8.6,-2.5 -28.87,-1.5 -40.6,1.99 -17.86,5.33 -30.11,13.01 -46.88,29.38 -12.83,12.53 -12.95,12.56 -14.39,3.56 -1.38,-8.62 4.02,-18.59 14.29,-26.36 7.96,-6.03 23.19,-13.88 33.67,-17.37 18.74,-6.23 45.41,-9.17 60.3,-6.65 14.66,2.48 27.75,11.59 30.31,21.1 3.6,13.36 -7.06,31.5 -26.03,44.28 l -5.08,3.42 6.8,2.7 c 20.52,8.15 30.95,18.66 32.81,33.05 0.89,6.86 -1.66,18.27 -5.67,25.3 -9.07,15.95 -30.43,29.9 -55.69,36.37 z m 308.35,2.35 c -12.92,2.12 -32.56,1.91 -39.28,-0.41 -8.85,-3.05 -13.22,-8.54 -13.22,-16.56 0,-3.86 5.73,-34.21 17.65,-93.55 2.36,-11.77 2.52,-15.53 0.87,-20.63 -0.61,-1.89 -0.04,-2.34 5.14,-3.98 3.21,-1.02 8.52,-1.86 11.79,-1.87 5.41,-0.02 6.08,0.22 7.46,2.65 1.41,2.5 0.94,5.58 -7.17,46.5 l -0.74,3.72 c -10.75,54.26 -11.61,58.61 -10.2,62.03 0.15,0.37 0.33,0.73 0.53,1.15 2.53,5.29 8.62,7.65 21.17,8.2 12.25,0.53 20.88,-1.29 30.71,-6.45 11.99,-6.3 19.52,-15.14 22.36,-26.25 3.82,-14.98 -2.19,-27.69 -16.13,-34.12 -9.73,-4.49 -17.91,-6.28 -22.2,-4.86 -4.04,1.33 -16.67,1.81 -17.82,0.67 -1.05,-1.05 1.14,-7.82 3.83,-11.8 3.57,-5.3 7.66,-7.11 17.41,-7.72 8.55,-0.53 8.63,-0.56 14.57,-5.51 11.28,-9.39 17.54,-22.87 14.83,-31.93 -1.8,-6 -6.42,-10.18 -13.57,-12.27 -7.93,-2.32 -28.52,-1.63 -39.35,1.32 -17.26,4.7 -34.24,15.24 -49.78,30.9 -5.6,5.64 -10.43,10.25 -10.73,10.25 -1.26,0 -2.79,-8.8 -2.24,-12.85 1.38,-10.01 8.87,-18.78 23.41,-27.38 30.9,-18.28 77.09,-24.39 99.41,-13.15 11.09,5.59 15.79,12.42 15.79,22.95 0,12.26 -7.48,23.7 -23.13,35.35 -4.37,3.25 -7.59,6.12 -7.16,6.37 0.43,0.24 2.59,1.01 4.79,1.7 12.16,3.81 25.17,13.31 29.75,21.74 6.03,11.07 5.77,21.7 -0.84,35.13 -9.78,19.85 -35.72,35.38 -67.91,40.66 z m -103.08,-9.77 c 0.7,4.95 0.19,5.09 -7.96,2.19 -15.01,-5.33 -52.98,-5.51 -85.2,-0.4 -19.14,3.03 -21.83,1.87 -21.66,-9.34 0.08,-5.8 0.38,-6.77 2.5,-8.14 20.34,-13.19 50.18,-41.08 64.79,-60.56 8.9,-11.88 18.13,-29.45 20.15,-38.37 1.6,-7.06 0.72,-16.16 -1.98,-20.53 -6.01,-9.73 -24.71,-11.09 -40.25,-2.93 -6.96,3.66 -17.21,12.95 -21.6,19.6 -3.23,4.87 -4.4,3.74 -4.57,-4.43 -0.11,-5.26 0.33,-7.14 2.61,-11.01 3.64,-6.2 11.07,-12.55 20.66,-17.66 21.46,-11.44 47.11,-10.71 60.38,1.7 7.25,6.78 9.08,10.97 9,20.63 -0.1,13.85 -6.91,28.72 -22.2,48.5 -8.77,11.35 -31.39,34.4 -48.4,49.34 -7.59,6.66 -13.32,12.28 -12.73,12.48 0.6,0.2 4.79,-0.11 9.31,-0.7 27.54,-3.53 58.6,-3.95 65.84,-0.87 6.66,2.83 9.57,8.08 11.31,20.5 z m -404.11,72.18 c -0.49,1.89 -1.33,3.53 -1.86,3.66 -1.23,0.29 -16.48,-3.8 -27.95,-7.49 -28.32,-9.12 -39.23,-20.26 -44.68,-45.59 -2.12,-9.9 -3.85,-50.9 -2.2,-52.5 0.81,-0.8 12.03,5.16 34.38,18.25 13.59,7.96 30.13,22.72 34.96,31.19 5.75,10.1 7.28,16.67 7.79,33.55 0.26,8.53 0.06,17.04 -0.44,18.93 z m 30.69,0.62 c -5.23,1.43 -10.29,2.85 -11.25,3.14 -1.31,0.41 -2.16,-0.42 -3.38,-3.32 -1.35,-3.23 -1.53,-6.36 -1.05,-18.87 0.6,-15.88 2.05,-22.47 7.07,-32.19 2.66,-5.16 14.86,-18.59 20.61,-22.69 8.96,-6.4 17.04,-11.63 23,-14.89 14.78,-8.08 20.87,-11.52 23.09,-13.08 1.3,-0.91 2.7,-1.65 3.13,-1.65 0.43,0 0.78,8.02 0.78,17.83 0,42.11 -7.03,60.9 -27.32,73.02 -6.05,3.62 -19.46,8.52 -34.68,12.7 z m 6.5,-83.44 c -5.5,1.6 -12.53,3.2 -15.62,3.53 l -5.61,0.62 -0.71,-15.88 c -1.26,-28.41 0.83,-34.46 18.11,-52.39 11.52,-11.95 19.79,-18.23 34.83,-26.48 3.85,-2.11 8.9,-5.36 11.22,-7.22 4.18,-3.35 4.22,-3.36 4.69,-1.08 0.26,1.26 0.73,11.07 1.04,21.79 0.82,28.41 -1.61,41.46 -10.03,53.68 -7.49,10.88 -18.7,17.81 -37.92,23.43 z m -37.15,-3.76 -0.64,7.65 -3.11,-0.14 c -7.72,-0.34 -26.36,-5.78 -35.61,-10.39 -16.43,-8.21 -26.05,-21.32 -28.94,-39.47 -1.12,-7.06 -1.27,-49.01 -0.18,-52.88 l 0.66,-2.38 3.01,2.53 c 1.66,1.39 5.92,4.22 9.48,6.28 17.39,10.09 28.56,18.43 37.02,27.65 11.53,12.54 13.49,15.3 16.43,23.13 2.18,5.8 2.53,8.33 2.53,18.54 0,6.51 -0.29,15.27 -0.65,19.48 z m 14.22,-210.24 c -5.49,2.49 -7.99,2.29 -15.25,-1.27 -8.06,-3.94 -17.46,-12.5 -20.38,-18.56 -5.33,-11.07 -4.15,-24.78 3.48,-40.64 6.04,-12.55 22.22,-33.64 25.81,-33.64 1.53,0 8.12,7.24 15.94,17.51 11.01,14.46 17.67,32.74 16.32,44.83 -0.79,7.09 -3.14,13.05 -7.17,18.17 -3.12,3.98 -12.44,10.73 -18.75,13.6 z m 19.38,129.23 c -4.69,1.36 -10.61,2.79 -13.15,3.17 l -4.61,0.69 -0.35,-6.29 c -0.19,-3.46 -0.06,-11.94 0.29,-18.85 0.54,-10.83 1.04,-13.55 3.62,-19.77 5.02,-12.07 14.14,-21.53 32.34,-33.54 13.88,-9.17 32.9,-19.16 34.12,-17.94 0.49,0.49 0.37,3 -0.29,5.78 -0.64,2.7 -1.46,14.81 -1.83,26.91 l -0.68,22 -3.7,7.66 c -6.72,13.9 -20.13,22.76 -45.76,30.18 z m -33.23,-13.09 0.57,16.75 -2.89,-0.06 c -4.25,-0.09 -24.72,-6.06 -33.5,-9.78 -9.27,-3.93 -18.5,-10.29 -23.36,-16.11 -7.47,-8.95 -8.46,-12.99 -9.64,-39.51 -0.53,-12.12 -1.23,-23.95 -1.54,-26.29 -0.49,-3.68 -0.32,-4.25 1.28,-4.25 6.49,0.01 41.8,22.69 52.56,33.76 12.79,13.15 15.68,21.13 16.52,45.49 z m 30.9,-62.36 c -3.92,1.06 -8.99,2.14 -11.27,2.41 -3.95,0.46 -4.17,0.34 -4.75,-2.53 -2.03,-10.18 0.37,-29.94 4.78,-39.27 4.11,-8.7 14.87,-20.47 24.92,-27.25 8.36,-5.65 32.05,-19.25 33.53,-19.25 3.11,0 2.56,32.38 -0.77,45.32 -5.51,21.38 -18.99,33.16 -46.44,40.57 z m -30.84,-11.2 c -0.23,11.36 -0.54,13.82 -1.78,13.98 -4.91,0.63 -24.98,-5.63 -36.37,-11.36 -16.65,-8.37 -24.53,-22.78 -27.14,-49.65 -0.95,-9.75 0.38,-27.66 2.05,-27.66 0.72,0 5.28,2.32 10.13,5.15 4.86,2.84 12.4,7.22 16.76,9.75 9.5,5.51 23.11,18.12 28.62,26.52 6.39,9.73 8.06,16.94 7.73,33.27 z m 486.73,256.23 c -6.71,3.19 -17.51,1.9 -17.51,-2.08 0,-1.76 0.4,-1.9 3.25,-1.18 9.64,2.41 15.4,-0.63 16.49,-8.73 l 0.58,-4.38 -3.23,2.72 c -5.87,4.94 -13.84,2.99 -17.61,-4.31 -1.88,-3.64 -1.9,-11.02 -0.04,-15.47 2.83,-6.78 12.48,-9.7 17.93,-5.42 l 2.63,2.08 v -2.08 c 0,-1.4 0.64,-2.07 2,-2.07 1.92,0 2,0.67 2,16.25 0,18.23 -1.01,22.07 -6.49,24.67 z m 94.41,-13.51 c -3.28,2.77 -8.54,3.36 -12.54,1.43 -5.47,-2.65 -8.07,-13.87 -4.94,-21.35 2.83,-6.78 12.48,-9.7 17.93,-5.42 l 2.63,2.08 v -8.58 c 0,-7.9 0.16,-8.57 2,-8.57 1.94,0 2,0.67 2,21 0,20.33 -0.06,21 -2,21 -1.36,0 -2,-0.67 -2,-2.09 0,-2.01 -0.12,-1.99 -3.08,0.5 z m -354,0 c -7.78,6.55 -18.92,-0.43 -18.92,-11.86 0,-11.67 11.49,-19.67 19.37,-13.48 l 2.63,2.08 v -8.58 c 0,-7.9 0.16,-8.57 2,-8.57 0.08,0 0.15,0 0.23,0 0.28,-0.01 0.52,-0.01 0.73,0.07 1.15,0.48 1.15,3.75 1.15,25.36 v 3.07 c 0,6.33 -0.03,11.95 -0.06,12.5 -0.03,0.55 -0.95,1 -2.05,1 -1.36,0 -2,-0.67 -2,-2.09 0,-2.01 -0.12,-1.99 -3.08,0.5 z m 389.84,0.6 c -3.75,2.28 -8.9,2.5 -13.36,0.56 -9.26,-4.03 -10.04,-21.16 -1.21,-26.54 4.64,-2.83 12.61,-2.76 16.3,0.14 8.07,6.35 7.13,20.43 -1.73,25.84 z m -232.83,0.24 c -9.92,5.06 -20.45,-1.52 -20.29,-12.68 0.14,-9.52 5.63,-15.56 14.16,-15.57 9.01,0 13.63,5.21 13.56,15.3 -0.05,6.71 -2.06,10.21 -7.43,12.95 z m -89.42,0.31 c -4.56,1.91 -8.27,1.81 -12.44,-0.31 -5.44,-2.77 -7.54,-6.43 -7.54,-13.12 0,-9.53 5.49,-15.12 14.84,-15.13 4.32,0 5.3,0.43 8.75,3.88 3.7,3.7 3.88,4.19 3.88,10.25 -0.01,7.69 -2.4,12.3 -7.49,14.43 z m 254.57,-1.13 c -2.27,2.05 -8.67,2.93 -11.76,1.61 -3.95,-1.68 -5.61,-7.77 -3.29,-12.1 1.33,-2.49 6.11,-4.94 9.67,-4.95 6.99,-0.04 9.38,-2.8 5.47,-6.34 -2.28,-2.06 -6.37,-2.11 -10.22,-0.12 -2.87,1.48 -2.95,1.45 -2.95,-0.84 0,-2.94 3.48,-4.69 9.32,-4.69 8.38,0 10.67,4.23 10.67,19.75 0.01,9.2 0,9.25 -2.49,9.25 -1.66,0 -2.5,-0.56 -2.5,-1.65 0,-1.52 -0.17,-1.51 -1.92,0.08 z m -351.23,1.47 c -6.96,2.43 -14.66,0.3 -17.29,-4.77 -2.25,-4.36 -2.04,-13.83 0.4,-17.83 2.4,-3.93 6.75,-6.3 11.59,-6.3 2.82,0 4.43,0.78 7.05,3.4 2.88,2.88 3.4,4.1 3.4,8 v 4.6 h -20.22 l 0.65,2.75 c 1.47,6.25 8.38,8.95 14.62,5.72 2.88,-1.48 2.95,-1.46 2.95,0.91 0,1.82 -0.78,2.7 -3.15,3.52 z m 156.4,0.05 c -7.94,2.2 -17.18,0.23 -21.46,-4.6 -4.37,-4.92 -6.23,-16.4 -3.73,-23.03 1.26,-3.36 6.44,-8.97 9.94,-10.79 4.02,-2.08 10.45,-2.76 14.89,-1.56 3.46,0.93 4.11,1.51 4.11,3.68 0,2.08 -0.33,2.41 -1.75,1.76 -0.96,-0.44 -4.49,-0.97 -7.83,-1.18 -5.44,-0.35 -6.42,-0.1 -9.29,2.31 -4.55,3.84 -6.13,7.5 -6.13,14.26 0,7 2.6,11.69 8.02,14.5 3.41,1.77 7.07,1.8 14.23,0.11 2.32,-0.54 2.75,-0.32 2.75,1.43 0,1.54 -0.96,2.33 -3.75,3.11 z m -204,0 c -13.55,3.76 -24.31,-3.24 -25.93,-16.87 -1.71,-14.48 11.05,-26.31 25.18,-23.34 3.41,0.71 4.05,1.26 4.33,3.69 0.28,2.44 0.07,2.73 -1.5,2.02 -1.01,-0.46 -4.31,-0.99 -7.33,-1.18 -4.25,-0.27 -6.25,0.12 -8.81,1.71 -6.16,3.84 -8.95,14.56 -5.77,22.17 1.91,4.58 4.25,6.5 9.69,7.96 3.83,1.02 5.37,0.97 9.24,-0.31 4.64,-1.52 4.65,-1.52 4.65,0.79 0,1.82 -0.8,2.54 -3.75,3.36 z m 222.5,-4.03 c 3.11,1.81 7.98,1.22 10.94,-1.33 2.5,-2.15 2.81,-3.08 2.81,-8.42 0,-4.98 -0.41,-6.45 -2.42,-8.59 -4.21,-4.48 -11.65,-3.25 -14.57,2.4 -2.76,5.34 -1.13,13.4 3.24,15.94 z m -89.39,-0.38 c 2.43,1.7 6.95,1.9 9.7,0.43 4.99,-2.67 6.37,-11.54 2.66,-17.07 -3.01,-4.48 -9.03,-5.26 -13.17,-1.7 -4.88,4.2 -4.42,14.67 0.81,18.34 z m 320.56,-1.46 c 3.13,3.12 6.7,3.73 10.4,1.76 3.64,-1.94 4.61,-4.07 4.65,-10.14 0.04,-7.44 -2.69,-10.7 -8.97,-10.7 -6.21,0 -9,3.27 -9,10.53 0,4.88 0.39,6.01 2.92,8.55 z M 786,671.67 V 682 h -5 v -14.5 c 0,-13.91 0.08,-14.5 2.03,-14.5 1.18,0 2.42,0.95 2.94,2.25 0.5,1.24 0.93,1.76 0.97,1.16 0.14,-2.5 8.45,-4.35 12.52,-2.79 3.08,1.18 4.57,6.16 5.22,17.38 l 0.63,11 H 800 l -0.01,-9.75 c -0.02,-11.74 -1.14,-14.62 -5.87,-15.07 -2.39,-0.23 -4.02,0.31 -5.73,1.92 -2.22,2.09 -2.39,2.98 -2.39,12.57 z m -33.55,4.88 c 3.16,3.15 7.58,3.19 11.17,0.1 2.28,-1.96 2.8,-3.34 3.17,-8.43 0.4,-5.5 0.19,-6.33 -2.13,-8.65 -2.53,-2.53 -6.57,-3.31 -10.12,-1.95 -2.59,1 -4.54,5.88 -4.54,11.38 0,4.07 0.49,5.58 2.45,7.55 z m 95,0 c 3.16,3.15 7.58,3.19 11.17,0.1 2.28,-1.96 2.8,-3.34 3.17,-8.43 0.4,-5.5 0.19,-6.33 -2.13,-8.65 -2.53,-2.53 -6.57,-3.31 -10.12,-1.95 -2.59,1 -4.54,5.88 -4.54,11.38 0,4.07 0.49,5.58 2.45,7.55 z M 681,671.95 V 682 h -5.05 l 0.27,-14.25 c 0.27,-13.92 0.33,-14.26 2.53,-14.57 1.73,-0.25 2.25,0.17 2.25,1.82 v 2.15 l 2.63,-2.08 c 4.02,-3.16 9.8,-2.79 13.45,0.85 2.89,2.9 2.92,3.04 2.92,14.5 0,10.91 -0.12,11.58 -2,11.58 -1.86,0 -2,-0.67 -2,-9.57 0,-9.07 -0.91,-13 -3.4,-14.66 -2.3,-1.54 -6.74,-0.72 -9.15,1.68 -2.28,2.28 -2.45,3.17 -2.45,12.5 z m -187.08,4.13 c 1.77,1.76 3.98,2.92 5.58,2.92 1.6,0 3.81,-1.16 5.58,-2.92 2.53,-2.54 2.92,-3.67 2.92,-8.55 0,-6.95 -2.84,-10.53 -8.37,-10.53 -8.14,0 -11.98,12.81 -5.71,19.08 z m 227.8,4.95 c -3.46,2.11 -10.09,2.57 -12.97,0.89 -0.96,-0.56 -1.75,-1.95 -1.75,-3.08 0,-1.56 0.42,-1.88 1.75,-1.34 4.01,1.65 9.82,1.73 11.12,0.15 2.27,-2.72 0.83,-5.05 -4.81,-7.8 -2.99,-1.46 -6.03,-3.46 -6.75,-4.44 -3.92,-5.37 1.29,-12.41 9.18,-12.41 5.64,0 7.51,0.78 7.51,3.12 0,1.7 -0.54,1.83 -5.28,1.28 -4.13,-0.49 -5.57,-0.28 -6.59,0.94 -2.31,2.79 -0.84,5.06 5.14,7.91 8.76,4.18 10.27,10.62 3.45,14.78 z m -172.9,-0.28 c -0.56,2.94 -6.31,2.85 -9.3,-0.14 -2.36,-2.35 -2.52,-3.17 -2.52,-12.5 0,-9.58 -0.09,-9.98 -2.25,-10.29 -1.48,-0.21 -2.25,-1.01 -2.25,-2.32 0,-1.31 0.77,-2.11 2.25,-2.32 1.74,-0.25 2.25,-0.97 2.25,-3.21 0,-1.81 0.7,-3.28 1.87,-3.9 2.42,-1.3 3.13,-0.49 3.13,3.6 0,3.15 0.19,3.33 3.57,3.33 3.13,0 3.53,0.28 3.25,2.25 -0.25,1.72 -1.08,2.32 -3.57,2.56 l -3.25,0.32 v 9.23 c 0,9.88 0.72,11.64 4.77,11.64 1.72,0 2.29,0.48 2.05,1.75 z M 444,671.95 V 682 h -5.05 l 0.27,-14.24 c 0.25,-12.85 0.46,-14.27 2.1,-14.58 1.16,-0.23 2.01,0.37 2.34,1.64 0.52,1.98 0.54,1.98 2.49,0.03 2.41,-2.41 7.18,-2.15 7.66,0.4 0.25,1.31 -0.33,1.75 -2.28,1.75 -1.45,0 -3.72,1.1 -5.08,2.45 -2.28,2.28 -2.45,3.17 -2.45,12.5 z m 82.78,-4.2 0.27,14.25 h -5.1 l 0.27,-14.25 c 0.27,-13.49 0.39,-14.25 2.28,-14.25 1.89,0 2.01,0.76 2.28,14.25 z m 211,0 0.27,14.25 h -5.1 l 0.27,-14.25 c 0.27,-13.49 0.39,-14.25 2.28,-14.25 1.89,0 2.01,0.76 2.28,14.25 z m 79.42,10.05 c 3.72,3.72 11.8,-0.98 11.8,-6.87 v -3.16 l -4.75,0.72 c -2.61,0.39 -5.54,1.13 -6.5,1.64 -2.02,1.08 -2.36,5.86 -0.55,7.67 z M 462.71,661.76 460.82,665 h 8.09 c 4.46,0 8.09,-0.43 8.09,-0.95 0,-0.53 -0.53,-2.11 -1.17,-3.53 -2.33,-5.12 -9.82,-4.42 -13.12,1.24 z m 9.22,-16.49 c -2.62,3.17 -5.93,4.97 -5.93,3.21 0,-1.85 5.58,-8.48 7.13,-8.48 2.58,0 2.36,0.95 -1.2,5.27 z m 266.42,-0.74 c -0.74,1.92 -4.25,1.9 -4.99,-0.03 -0.7,-1.82 0.22,-4.5 1.54,-4.5 1.72,0 4.03,3.02 3.45,4.53 z m -211.51,-0.92 c -0.37,1.92 -2.9,3 -4.14,1.76 -1.18,-1.18 -0.78,-4.13 0.64,-4.67 2.02,-0.77 3.9,0.8 3.5,2.91 z"
         fill="rgb(169,134,69)"
         id="path4"
         style="display:inline;fill:#e3ae1c;fill-opacity:1"
         clip-path="url(#clipPath5)" />
      <path
         d="m 470.65403,218.7267 c -10,2.57 -13.98,3.05 -28.15,3.41 -21.41,0.55 -27.54,-1.06 -33.3,-8.78 -0.43,-0.57 -0.81,-1.09 -1.14,-1.63 -2.94,-4.89 -1.43,-12.45 13.93,-89.4 l 0.16,-0.77 c 4.2,-21.07 4.84,-27.939999 2.97,-32.089999 -0.58,-1.29 0.68,-2 6.58,-3.75 12.86,-3.81 18.8,-2.54 18.8,4.03 0,1.68 -4.03,23.359999 -8.95,48.179999 l -0.86,4.32 c -9.76,49.18 -10.45,52.65 -9.56,55.65 0.09,0.31 0.2,0.62 0.32,0.98 2.32,6.99 12.29,10.28 28.53,9.41 12.45,-0.66 21.23,-3.74 30.81,-10.78 15.47,-11.38 20.88,-29.67 13.03,-44.11 -3.44,-6.34 -10.81,-11.46 -21.42,-14.87 -8.2,-2.64 -10.71,-2.77 -19.9,-1.06 -7.76,1.45 -13.01,0.76 -12.97,-1.71 0.06,-2.98 5.37,-12.54 8.05,-14.47 3.34,-2.42 8.94,-3.68 16.46,-3.71 6.02,-0.02 6.07,-0.04 13.06,-6.43 19.14,-17.469999 19.01,-37.579999 -0.29,-43.189999 -8.6,-2.5 -28.87,-1.5 -40.6,1.99 -17.86,5.33 -30.11,13.01 -46.88,29.38 -12.83,12.529999 -12.95,12.559999 -14.39,3.559999 -1.38,-8.619999 4.02,-18.589999 14.29,-26.359999 7.96,-6.03 23.19,-13.88 33.67,-17.37 18.74,-6.23 45.41,-9.17 60.3,-6.65 14.66,2.48 27.75,11.59 30.31,21.1 3.6,13.36 -7.06,31.499999 -26.03,44.279999 l -5.08,3.42 6.8,2.7 c 20.52,8.15 30.95,18.66 32.81,33.05 0.89,6.86 -1.66,18.27 -5.67,25.3 -9.07,15.95 -30.43,29.9 -55.69,36.37 z m 308.35002,2.35 c -12.92,2.12 -32.56,1.91 -39.28,-0.41 -8.85,-3.05 -13.22002,-8.54 -13.22002,-16.56 0,-3.86 5.73002,-34.21 17.65002,-93.55 2.36,-11.769999 2.52,-15.529999 0.87,-20.629999 -0.61,-1.89 -0.04,-2.34 5.14,-3.98 3.21,-1.02 8.52,-1.86 11.79,-1.87 5.41,-0.02 6.08,0.22 7.46,2.65 1.41,2.5 0.94,5.58 -7.17,46.499999 l -0.74,3.72 c -10.75,54.26 -11.61,58.61 -10.2,62.03 0.15,0.37 0.33,0.73 0.53,1.15 2.53,5.29 8.62,7.65 21.17,8.2 12.25,0.53 20.88,-1.29 30.71,-6.45 11.99,-6.3 19.52,-15.14 22.36,-26.25 3.82,-14.98 -2.19,-27.69 -16.13,-34.12 -9.73,-4.49 -17.91,-6.28 -22.2,-4.86 -4.04,1.33 -16.67,1.81 -17.82,0.67 -1.05,-1.05 1.14,-7.82 3.83,-11.8 3.57,-5.3 7.66,-7.11 17.41,-7.72 8.55,-0.53 8.63,-0.56 14.57,-5.51 11.28,-9.39 17.54,-22.869999 14.83,-31.929999 -1.8,-6 -6.42,-10.18 -13.57,-12.27 -7.93,-2.32 -28.52,-1.63 -39.35,1.32 -17.26,4.7 -34.24,15.24 -49.78002,30.899999 -5.6,5.64 -10.43,10.25 -10.73,10.25 -1.26,0 -2.79,-8.8 -2.24,-12.849999 1.38,-10.01 8.87,-18.78 23.41,-27.38 30.90002,-18.28 77.09002,-24.39 99.41002,-13.15 11.09,5.59 15.79,12.42 15.79,22.95 0,12.26 -7.48,23.699999 -23.13,35.349999 -4.37,3.25 -7.59,6.12 -7.16,6.37 0.43,0.24 2.59,1.01 4.79,1.7 12.16,3.81 25.17,13.31 29.75,21.74 6.03,11.07 5.77,21.7 -0.84,35.13 -9.78,19.85 -35.72,35.38 -67.91,40.66 z m -103.08002,-9.77 c 0.7,4.95 0.19,5.09 -7.96,2.19 -15.01,-5.33 -52.98,-5.51 -85.2,-0.4 -19.14,3.03 -21.83,1.87 -21.66,-9.34 0.08,-5.8 0.38,-6.77 2.5,-8.14 20.34,-13.19 50.18,-41.08 64.79,-60.56 8.9,-11.88 18.13,-29.45 20.15,-38.369999 1.6,-7.06 0.72,-16.16 -1.98,-20.53 -6.01,-9.73 -24.71,-11.09 -40.25,-2.93 -6.96,3.66 -17.21,12.95 -21.6,19.6 -3.23,4.87 -4.4,3.74 -4.57,-4.43 -0.11,-5.26 0.33,-7.14 2.61,-11.01 3.64,-6.2 11.07,-12.55 20.66,-17.66 21.46,-11.44 47.11,-10.71 60.38,1.7 7.25,6.78 9.08,10.97 9,20.63 -0.1,13.85 -6.91,28.719999 -22.2,48.499999 -8.77,11.35 -31.39,34.4 -48.4,49.34 -7.59,6.66 -13.32,12.28 -12.73,12.48 0.6,0.2 4.79,-0.11 9.31,-0.7 27.54,-3.53 58.6,-3.95 65.84,-0.87 6.66,2.83 9.57,8.08 11.31,20.5 z m -404.11,72.18 c -0.49,1.89 -1.33,3.53 -1.86,3.66 -1.23,0.29 -16.48,-3.8 -27.95,-7.49 -28.32,-9.12 -39.23,-20.26 -44.68,-45.59 -2.12,-9.9 -3.85,-50.9 -2.2,-52.5 0.81,-0.8 12.03,5.16 34.38,18.25 13.59,7.96 30.13,22.72 34.96,31.19 5.75,10.1 7.28,16.67 7.79,33.55 0.26,8.53 0.06,17.04 -0.44,18.93 z m 30.69,0.62 c -5.23,1.43 -10.29,2.85 -11.25,3.14 -1.31,0.41 -2.16,-0.42 -3.38,-3.32 -1.35,-3.23 -1.53,-6.36 -1.05,-18.87 0.6,-15.88 2.05,-22.47 7.07,-32.19 2.66,-5.16 14.86,-18.59 20.61,-22.69 8.96,-6.4 17.04,-11.63 23,-14.89 14.78,-8.08 20.87,-11.52 23.09,-13.08 1.3,-0.91 2.7,-1.65 3.13,-1.65 0.43,0 0.78,8.02 0.78,17.83 0,42.11 -7.03,60.9 -27.32,73.02 -6.05,3.62 -19.46,8.52 -34.68,12.7 z m 6.5,-83.44 c -5.5,1.6 -12.53,3.2 -15.62,3.53 l -5.61,0.62 -0.71,-15.88 c -1.26,-28.41 0.83,-34.46 18.11,-52.39 11.52,-11.95 19.79,-18.23 34.83,-26.48 3.85,-2.11 8.9,-5.36 11.22,-7.22 4.18,-3.349999 4.22,-3.359999 4.69,-1.08 0.26,1.26 0.73,11.07 1.04,21.79 0.82,28.41 -1.61,41.46 -10.03,53.68 -7.49,10.88 -18.7,17.81 -37.92,23.43 z m -37.15,-3.76 -0.64,7.65 -3.11,-0.14 c -7.72,-0.34 -26.36,-5.78 -35.61,-10.39 -16.43,-8.21 -26.05,-21.32 -28.94,-39.47 -1.12,-7.06 -1.27,-49.01 -0.18,-52.88 l 0.66,-2.379999 3.01,2.529999 c 1.66,1.39 5.92,4.22 9.48,6.28 17.39,10.09 28.56,18.43 37.02,27.65 11.53,12.54 13.49,15.3 16.43,23.13 2.18,5.8 2.53,8.33 2.53,18.54 0,6.51 -0.29,15.27 -0.65,19.48 z m 14.22,-210.239999 c -5.49,2.49 -7.99,2.29 -15.25,-1.27 -8.06,-3.94 -17.46,-12.5 -20.38,-18.56 -5.33,-11.07 -4.15,-24.78 3.48,-40.64 6.04,-12.55 22.22,-33.640001 25.81,-33.640001 1.53,0 8.12,7.24 15.94,17.510001 11.01,14.46 17.67,32.74 16.32,44.83 -0.79,7.09 -3.14,13.05 -7.17,18.17 -3.12,3.98 -12.44,10.73 -18.75,13.6 z m 19.38,129.229999 c -4.69,1.36 -10.61,2.79 -13.15,3.17 l -4.61,0.69 -0.35,-6.29 c -0.19,-3.46 -0.06,-11.94 0.29,-18.849999 0.54,-10.83 1.04,-13.55 3.62,-19.77 5.02,-12.07 14.14,-21.53 32.34,-33.54 13.88,-9.17 32.9,-19.16 34.12,-17.94 0.49,0.49 0.37,3 -0.29,5.78 -0.64,2.7 -1.46,14.81 -1.83,26.91 l -0.68,22 -3.7,7.66 c -6.72,13.9 -20.13,22.759999 -45.76,30.179999 z m -33.23,-13.09 0.57,16.75 -2.89,-0.06 c -4.25,-0.09 -24.72,-6.06 -33.5,-9.78 -9.27,-3.93 -18.5,-10.289999 -23.36,-16.109999 -7.47,-8.95 -8.46,-12.99 -9.64,-39.51 -0.53,-12.12 -1.23,-23.95 -1.54,-26.29 -0.49,-3.68 -0.32,-4.25 1.28,-4.25 6.49,0.01 41.8,22.69 52.56,33.76 12.79,13.15 15.68,21.13 16.52,45.489999 z m 30.9,-62.359999 c -3.92,1.06 -8.99,2.14 -11.27,2.41 -3.95,0.46 -4.17,0.34 -4.75,-2.53 -2.03,-10.18 0.37,-29.94 4.78,-39.27 4.11,-8.7 14.87,-20.47 24.92,-27.25 8.36,-5.65 32.05,-19.25 33.53,-19.25 3.11,0 2.56,32.38 -0.77,45.32000003 -5.51,21.37999997 -18.99,33.15999997 -46.44,40.56999997 z m -30.84,-11.2 c -0.23,11.36 -0.54,13.82 -1.78,13.98 -4.91,0.63 -24.98,-5.63 -36.37,-11.36 -16.65,-8.37 -24.53,-22.78 -27.14,-49.65 -0.95,-9.75 0.38,-27.66 2.05,-27.66 0.72,0 5.28,2.32 10.13,5.15 4.86,2.84 12.4,7.22 16.76,9.75 9.5,5.51 23.11,18.12 28.62,26.52 6.39,9.73 8.06,16.94 7.73,33.27 z M 759.01405,285.4767 c -6.71,3.19 -17.51,1.9 -17.51,-2.08 0,-1.76 0.4,-1.9 3.25,-1.18 9.64,2.41 15.4,-0.63 16.49,-8.73 l 0.58,-4.38 -3.23,2.72 c -5.87,4.94 -13.84,2.99 -17.61,-4.31 -1.88,-3.64 -1.9,-11.02 -0.04,-15.47 2.83,-6.78 12.48,-9.7 17.93,-5.42 l 2.63,2.08 v -2.08 c 0,-1.4 0.64,-2.07 2,-2.07 1.92,0 2,0.67 2,16.25 0,18.23 -1.01,22.07 -6.49,24.67 z m 94.41,-13.51 c -3.28,2.77 -8.54,3.36 -12.54,1.43 -5.47,-2.65 -8.07,-13.87 -4.94,-21.35 2.83,-6.78 12.48,-9.7 17.93,-5.42 l 2.63,2.08 v -8.58 c 0,-7.9 0.16,-8.57 2,-8.57 1.94,0 2,0.67 2,21 0,20.33 -0.06,21 -2,21 -1.36,0 -2,-0.67 -2,-2.09 0,-2.01 -0.12,-1.99 -3.08,0.5 z m -354.00002,0 c -7.78,6.55 -18.92,-0.43 -18.92,-11.86 0,-11.67 11.49,-19.67 19.37,-13.48 l 2.63,2.08 v -8.58 c 0,-7.9 0.16,-8.57 2,-8.57 0.08,0 0.15,0 0.23,0 0.28,-0.01 0.52,-0.01 0.73,0.07 1.15,0.48 1.15,3.75 1.15,25.36 v 3.07 c 0,6.33 -0.03,11.95 -0.06,12.5 -0.03,0.55 -0.95,1 -2.05,1 -1.36,0 -2,-0.67 -2,-2.09 0,-2.01 -0.12,-1.99 -3.08,0.5 z m 389.84002,0.6 c -3.75,2.28 -8.9,2.5 -13.36,0.56 -9.26,-4.03 -10.04,-21.16 -1.21,-26.54 4.64,-2.83 12.61,-2.76 16.3,0.14 8.07,6.35 7.13,20.43 -1.73,25.84 z m -232.83002,0.24 c -9.92,5.06 -20.45,-1.52 -20.29,-12.68 0.14,-9.52 5.63,-15.56 14.16,-15.57 9.01,0 13.63,5.21 13.56,15.3 -0.05,6.71 -2.06,10.21 -7.43,12.95 z m -89.42,0.31 c -4.56,1.91 -8.27,1.81 -12.44,-0.31 -5.44,-2.77 -7.54,-6.43 -7.54,-13.12 0,-9.53 5.49,-15.12 14.84,-15.13 4.32,0 5.3,0.43 8.75,3.88 3.7,3.7 3.88,4.19 3.88,10.25 -0.01,7.69 -2.4,12.3 -7.49,14.43 z m 254.57002,-1.13 c -2.27,2.05 -8.67,2.93 -11.76,1.61 -3.95,-1.68 -5.61,-7.77 -3.29,-12.1 1.33,-2.49 6.11,-4.94 9.67,-4.95 6.99,-0.04 9.38,-2.8 5.47,-6.34 -2.28,-2.06 -6.37,-2.11 -10.22,-0.12 -2.87,1.48 -2.95,1.45 -2.95,-0.84 0,-2.94 3.48,-4.69 9.32,-4.69 8.38,0 10.67,4.23 10.67,19.75 0.01,9.2 0,9.25 -2.49,9.25 -1.66,0 -2.5,-0.56 -2.5,-1.65 0,-1.52 -0.17,-1.51 -1.92,0.08 z m -351.23002,1.47 c -6.96,2.43 -14.66,0.3 -17.29,-4.77 -2.25,-4.36 -2.04,-13.83 0.4,-17.83 2.4,-3.93 6.75,-6.3 11.59,-6.3 2.82,0 4.43,0.78 7.05,3.4 2.88,2.88 3.4,4.1 3.4,8 v 4.6 h -20.22 l 0.65,2.75 c 1.47,6.25 8.38,8.95 14.62,5.72 2.88,-1.48 2.95,-1.46 2.95,0.91 0,1.82 -0.78,2.7 -3.15,3.52 z m 156.4,0.05 c -7.94,2.2 -17.18,0.23 -21.46,-4.6 -4.37,-4.92 -6.23,-16.4 -3.73,-23.03 1.26,-3.36 6.44,-8.97 9.94,-10.79 4.02,-2.08 10.45,-2.76 14.89,-1.56 3.46,0.93 4.11,1.51 4.11,3.68 0,2.08 -0.33,2.41 -1.75,1.76 -0.96,-0.44 -4.49,-0.97 -7.83,-1.18 -5.44,-0.35 -6.42,-0.1 -9.29,2.31 -4.55,3.84 -6.13,7.5 -6.13,14.26 0,7 2.6,11.69 8.02,14.5 3.41,1.77 7.07,1.8 14.23,0.11 2.32,-0.54 2.75,-0.32 2.75,1.43 0,1.54 -0.96,2.33 -3.75,3.11 z m -204,0 c -13.55,3.76 -24.31,-3.24 -25.93,-16.87 -1.71,-14.48 11.05,-26.31 25.18,-23.34 3.41,0.71 4.05,1.26 4.33,3.69 0.28,2.44 0.07,2.73 -1.5,2.02 -1.01,-0.46 -4.31,-0.99 -7.33,-1.18 -4.25,-0.27 -6.25,0.12 -8.81,1.71 -6.16,3.84 -8.95,14.56 -5.77,22.17 1.91,4.58 4.25,6.5 9.69,7.96 3.83,1.02 5.37,0.97 9.24,-0.31 4.64,-1.52 4.65,-1.52 4.65,0.79 0,1.82 -0.8,2.54 -3.75,3.36 z m 222.5,-4.03 c 3.11,1.81 7.98,1.22 10.94,-1.33 2.5,-2.15 2.81,-3.08 2.81,-8.42 0,-4.98 -0.41,-6.45 -2.42,-8.59 -4.21,-4.48 -11.65,-3.25 -14.57,2.4 -2.76,5.34 -1.13,13.4 3.24,15.94 z m -89.39,-0.38 c 2.43,1.7 6.95,1.9 9.7,0.43 4.99,-2.67 6.37,-11.54 2.66,-17.07 -3.01,-4.48 -9.03,-5.26 -13.17,-1.7 -4.88,4.2 -4.42,14.67 0.81,18.34 z m 320.56002,-1.46 c 3.13,3.12 6.7,3.73 10.4,1.76 3.64,-1.94 4.61,-4.07 4.65,-10.14 0.04,-7.44 -2.69,-10.7 -8.97,-10.7 -6.21,0 -9,3.27 -9,10.53 0,4.88 0.39,6.01 2.92,8.55 z m -95.92,-4.41 v 10.33 h -5 v -14.5 c 0,-13.91 0.08,-14.5 2.03,-14.5 1.18,0 2.42,0.95 2.94,2.25 0.5,1.24 0.93,1.76 0.97,1.16 0.14,-2.5 8.45,-4.35 12.52,-2.79 3.08,1.18 4.57,6.16 5.22,17.38 l 0.63,11 h -5.31 l -0.01,-9.75 c -0.02,-11.74 -1.14,-14.62 -5.87,-15.07 -2.39,-0.23 -4.02,0.31 -5.73,1.92 -2.22,2.09 -2.39,2.98 -2.39,12.57 z m -33.55,4.88 c 3.16,3.15 7.58,3.19 11.17,0.1 2.28,-1.96 2.8,-3.34 3.17,-8.43 0.4,-5.5 0.19,-6.33 -2.13,-8.65 -2.53,-2.53 -6.57,-3.31 -10.12,-1.95 -2.59,1 -4.54,5.88 -4.54,11.38 0,4.07 0.49,5.58 2.45,7.55 z m 95,0 c 3.16,3.15 7.58,3.19 11.17,0.1 2.28,-1.96 2.8,-3.34 3.17,-8.43 0.4,-5.5 0.19,-6.33 -2.13,-8.65 -2.53,-2.53 -6.57,-3.31 -10.12,-1.95 -2.59,1 -4.54,5.88 -4.54,11.38 0,4.07 0.49,5.58 2.45,7.55 z m -166.45002,-4.6 v 10.05 h -5.05 l 0.27,-14.25 c 0.27,-13.92 0.33,-14.26 2.53,-14.57 1.73,-0.25 2.25,0.17 2.25,1.82 v 2.15 l 2.63,-2.08 c 4.02,-3.16 9.8,-2.79 13.45,0.85 2.89,2.9 2.92,3.04 2.92,14.5 0,10.91 -0.12,11.58 -2,11.58 -1.86,0 -2,-0.67 -2,-9.57 0,-9.07 -0.91,-13 -3.4,-14.66 -2.3,-1.54 -6.74,-0.72 -9.15,1.68 -2.28,2.28 -2.45,3.17 -2.45,12.5 z m -187.08,4.13 c 1.77,1.76 3.98,2.92 5.58,2.92 1.6,0 3.81,-1.16 5.58,-2.92 2.53,-2.54 2.92,-3.67 2.92,-8.55 0,-6.95 -2.84,-10.53 -8.37,-10.53 -8.14,0 -11.98,12.81 -5.71,19.08 z m 227.8,4.95 c -3.46,2.11 -10.09,2.57 -12.97,0.89 -0.96,-0.56 -1.75,-1.95 -1.75,-3.08 0,-1.56 0.42,-1.88 1.75,-1.34 4.01,1.65 9.82,1.73 11.12,0.15 2.27,-2.72 0.83,-5.05 -4.81,-7.8 -2.99,-1.46 -6.03,-3.46 -6.75,-4.44 -3.92,-5.37 1.29,-12.41 9.18,-12.41 5.64,0 7.51,0.78 7.51,3.12 0,1.7 -0.54,1.83 -5.28,1.28 -4.13,-0.49 -5.57,-0.28 -6.59,0.94 -2.31,2.79 -0.84,5.06 5.14,7.91 8.76,4.18 10.27,10.62 3.45,14.78 z m -172.9,-0.28 c -0.56,2.94 -6.31,2.85 -9.3,-0.14 -2.36,-2.35 -2.52,-3.17 -2.52,-12.5 0,-9.58 -0.09,-9.98 -2.25,-10.29 -1.48,-0.21 -2.25,-1.01 -2.25,-2.32 0,-1.31 0.77,-2.11 2.25,-2.32 1.74,-0.25 2.25,-0.97 2.25,-3.21 0,-1.81 0.7,-3.28 1.87,-3.9 2.42,-1.3 3.13,-0.49 3.13,3.6 0,3.15 0.19,3.33 3.57,3.33 3.13,0 3.53,0.28 3.25,2.25 -0.25,1.72 -1.08,2.32 -3.57,2.56 l -3.25,0.32 v 9.23 c 0,9.88 0.72,11.64 4.77,11.64 1.72,0 2.29,0.48 2.05,1.75 z m -104.82,-8.8 v 10.05 h -5.05 l 0.27,-14.24 c 0.25,-12.85 0.46,-14.27 2.1,-14.58 1.16,-0.23 2.01,0.37 2.34,1.64 0.52,1.98 0.54,1.98 2.49,0.03 2.41,-2.41 7.18,-2.15 7.66,0.4 0.25,1.31 -0.33,1.75 -2.28,1.75 -1.45,0 -3.72,1.1 -5.08,2.45 -2.28,2.28 -2.45,3.17 -2.45,12.5 z m 82.78,-4.2 0.27,14.25 h -5.1 l 0.27,-14.25 c 0.27,-13.49 0.39,-14.25 2.28,-14.25 1.89,0 2.01,0.76 2.28,14.25 z m 211.00002,0 0.27,14.25 h -5.10002 l 0.27,-14.25 c 0.27,-13.49 0.39,-14.25 2.28002,-14.25 1.89,0 2.01,0.76 2.28,14.25 z m 79.42,10.05 c 3.72,3.72 11.8,-0.98 11.8,-6.87 v -3.16 l -4.75,0.72 c -2.61,0.39 -5.54,1.13 -6.5,1.64 -2.02,1.08 -2.36,5.86 -0.55,7.67 z m -354.49002,-16.04 -1.89,3.24 h 8.09 c 4.46,0 8.09,-0.43 8.09,-0.95 0,-0.53 -0.53,-2.11 -1.17,-3.53 -2.33,-5.12 -9.82,-4.42 -13.12,1.24 z m 9.22,-16.49 c -2.62,3.17 -5.93,4.97 -5.93,3.21 0,-1.85 5.58,-8.48 7.13,-8.48 2.58,0 2.36,0.95 -1.2,5.27 z m 266.42002,-0.74 c -0.74,1.92 -4.25,1.9 -4.99002,-0.03 -0.7,-1.82 0.22,-4.5 1.54002,-4.5 1.72,0 4.03,3.02 3.45,4.53 z m -211.51002,-0.92 c -0.37,1.92 -2.9,3 -4.14,1.76 -1.18,-1.18 -0.78,-4.13 0.64,-4.67 2.02,-0.77 3.9,0.8 3.5,2.91 z"
         fill="rgb(169,134,69)"
         id="path4-3"
         style="display:inline;fill:#fdfdfe;fill-opacity:1"
         clip-path="url(#clipPath7)"
         transform="translate(13.90378,381.12715)" />
    </g>
  </g>
</svg>
